<svg width="131" height="20" viewBox="0 0 131 20" fill="none" xmlns="http://www.w3.org/2000/svg">
<path d="M8.80569 6.48285C8.56318 9.258 5.82741 11.7689 4.90259 13.3547C3.99118 14.9175 3.69015 16.3922 4.41168 19.3225C4.42457 19.3748 4.3745 19.4218 4.32575 19.4001C3.38116 18.9799 1.1367e-06 17.4182 0 13.2915C-1.51308e-06 7.79835 6.05931 7.65699 5.64611 0.0711828C5.64325 0.0185289 5.70011 -0.0188737 5.7436 0.0100955C7.79712 1.37795 9.04411 3.75395 8.80569 6.48285Z" fill="#0CA28B"/>
<path d="M4.85914 19.499C4.83446 19.4909 4.81706 19.4678 4.81566 19.4416C4.7169 17.5936 5.68679 16.3935 6.77623 15.5064C9.26812 13.4774 10.7613 10.7051 9.95614 7.49635C9.94026 7.43271 10.015 7.38694 10.0598 7.4344C10.7017 8.11495 11.4185 9.23538 11.7875 10.0167C13.3123 13.3352 12.4985 17.1382 8.85014 19.0574C7.68805 19.6418 6.30441 19.9731 4.85914 19.499Z" fill="#3BBEAA"/>
<path fill-rule="evenodd" clip-rule="evenodd" d="M24.4048 5.03552V10.7659H18.9753V5.77282C18.9753 5.36556 18.6583 5.03552 18.267 5.03552H16.4346V18.6914C16.4346 19.0984 16.7518 19.4286 17.1429 19.4286H18.9753V13.0773H24.4048V18.6914C24.4048 19.0984 24.7218 19.4286 25.1131 19.4286H26.9456V5.77282C26.9456 5.36556 26.6283 5.03552 26.2371 5.03552H24.4048Z" fill="white"/>
<path fill-rule="evenodd" clip-rule="evenodd" d="M35.2791 8.42354V15.2519C35.2791 15.8723 34.9691 16.4605 34.4434 16.7708C32.9752 17.6372 31.4563 16.555 31.4563 15.128V9.1615C31.4563 8.75376 31.1328 8.42334 30.7336 8.42334H28.8563L28.8561 15.3716C28.8561 17.607 30.6469 19.436 32.8354 19.436H33.8996C36.0884 19.436 37.879 17.607 37.879 15.3714V9.1615C37.879 8.75376 37.5556 8.42334 37.1565 8.42334L35.2791 8.42354Z" fill="white"/>
<path fill-rule="evenodd" clip-rule="evenodd" d="M64.1248 19.4294H65.9627V9.74496C65.9627 9.33669 65.6445 9.00574 65.2523 9.00574H63.4146V18.69C63.4146 19.0983 63.7325 19.4294 64.1248 19.4294Z" fill="white"/>
<path fill-rule="evenodd" clip-rule="evenodd" d="M64.7059 7.90769C65.4886 7.90769 66.1232 7.26479 66.1232 6.47161C66.1232 5.67843 65.4886 5.03552 64.7059 5.03552C63.923 5.03552 63.2885 5.67843 63.2885 6.47161C63.2885 7.26479 63.923 7.90769 64.7059 7.90769Z" fill="white"/>
<path fill-rule="evenodd" clip-rule="evenodd" d="M47.0061 14.8618C47.0061 16.1737 45.9622 17.0471 44.6861 17.0471C43.4101 17.0471 42.3662 16.1737 42.3662 14.8618V12.9895C42.3662 11.6776 43.4101 10.8041 44.6861 10.8041C45.9622 10.8041 47.0061 11.6776 47.0061 12.9895V14.8618ZM44.6861 8.42334C41.9885 8.42334 39.7809 10.4076 39.7809 13.1813V14.6816C39.7809 17.4555 41.9885 19.428 44.6861 19.428C47.384 19.428 49.5912 17.4555 49.5912 14.6816V13.1813C49.5912 10.4076 47.384 8.42334 44.6861 8.42334Z" fill="white"/>
<path fill-rule="evenodd" clip-rule="evenodd" d="M58.7769 14.8656C58.7769 16.1766 57.726 17.0495 56.4419 17.0495C55.1576 17.0495 54.1069 16.1766 54.1069 14.8656V12.9946C54.1069 11.6835 55.1576 10.8106 56.4419 10.8106C57.726 10.8106 58.7769 11.6835 58.7769 12.9946V14.8656ZM56.4419 8.43146C55.5931 8.43146 54.7929 8.62506 54.0934 8.97608V5.772C54.0934 5.36528 53.7703 5.03552 53.3719 5.03552H51.5048V14.6855C51.5048 17.4575 53.7265 19.4286 56.4419 19.4286C59.1571 19.4286 61.3788 17.4575 61.3788 14.6855V13.1862C61.3788 10.4144 59.1571 8.43146 56.4419 8.43146Z" fill="white"/>
<path d="M130.993 19.3792V17.7186C130.993 17.6252 130.975 17.5328 130.94 17.4465C130.905 17.3603 130.854 17.282 130.789 17.2162C130.725 17.1504 130.647 17.0983 130.563 17.0629C130.479 17.0276 130.389 17.0098 130.297 17.0103H129.022C127.974 17.0103 128.023 16.472 128.023 15.0816V5.76722C128.023 5.57917 127.95 5.3988 127.821 5.26563C127.692 5.13244 127.516 5.05734 127.332 5.05676H125.445V15.4041C125.445 17.9082 126.082 19.3814 128.712 19.3814C129.73 19.3814 130.47 19.3509 131.001 19.3814L130.993 19.3792Z" fill="white"/>
<path d="M81.4936 10.8367H76.534V12.2308C76.534 12.3303 76.553 12.4288 76.5899 12.5208C76.6268 12.6128 76.6809 12.6964 76.749 12.7668C76.8172 12.8372 76.8981 12.893 76.9872 12.9311C77.0763 12.9692 77.1717 12.9888 77.2681 12.9888H79.6182V14.2196C79.6182 15.1279 79.4072 15.7988 78.9452 16.2715C78.3677 16.8315 77.6119 17.1541 76.82 17.1786C76.0281 17.203 75.2549 16.9277 74.6459 16.4044C73.9751 15.7248 73.8295 14.9863 73.8295 12.2504C73.8295 9.51439 73.9751 8.79557 74.6459 8.11158C75.1417 7.61274 76.1057 7.24025 76.9074 7.24025C79.614 7.24025 80.5211 8.23138 81.2004 9.13539H81.2889V7.11609C81.2873 6.96858 81.2538 6.82332 81.1906 6.69101C81.1274 6.55869 81.0364 6.44267 80.924 6.3515C79.7911 5.41483 78.6604 5.07283 76.7048 5.07283C75.2333 5.03559 73.8037 5.58116 72.7093 6.59765C71.22 7.98523 71.22 9.55366 71.22 12.148V12.3658C71.22 14.9602 71.22 16.5286 72.7093 17.9161C73.8509 18.915 75.3042 19.4533 76.8005 19.4312C78.2967 19.4092 79.7345 18.8285 80.8481 17.7963C81.8143 16.8378 82.2087 15.0038 82.2087 13.0956V11.599C82.21 11.4006 82.1357 11.2096 82.002 11.067C81.8682 10.9245 81.6857 10.8418 81.4936 10.8367Z" fill="white"/>
<path d="M89.7013 17.7186C89.7013 17.6252 89.6833 17.5328 89.6483 17.4465C89.6134 17.3603 89.5621 17.282 89.4975 17.2162C89.4329 17.1504 89.3562 17.0983 89.2719 17.0629C89.1876 17.0276 89.0973 17.0098 89.0062 17.0103H87.7308C86.6829 17.0103 86.7318 16.472 86.7318 15.0816V5.76722C86.7318 5.5788 86.6588 5.39809 86.5288 5.26485C86.3989 5.13162 86.2226 5.05676 86.0388 5.05676H84.1427V15.4041C84.1427 17.9082 84.7805 19.3814 87.412 19.3814C88.4302 19.3814 89.1699 19.3509 89.7013 19.3814V17.7186Z" fill="white"/>
<path d="M96.4151 8.43042C93.734 8.43042 91.5411 10.4132 91.5411 13.1892V14.6895C91.5411 17.4632 93.734 19.435 96.4151 19.435C99.0952 19.435 101.288 17.4632 101.288 14.6895V13.1892C101.288 10.4154 99.097 8.43042 96.4151 8.43042ZM98.7183 14.8789C98.7183 16.2008 97.682 17.0645 96.4124 17.0645C95.1436 17.0645 94.1091 16.1832 94.1091 14.8789V13.0063C94.1091 11.6845 95.1463 10.8208 96.4124 10.8208C97.6793 10.8208 98.7183 11.702 98.7183 13.0063V14.8789Z" fill="white"/>
<path d="M122.409 9.40769C121.645 8.7766 120.527 8.45886 119.085 8.45886C118.525 8.46033 117.966 8.49986 117.412 8.57719C116.951 8.64073 116.298 8.73277 115.845 8.84015C115.66 8.88397 115.633 9.0308 115.633 9.21051V10.6304C115.633 10.8824 115.633 11.1126 115.894 11.0468C116.379 10.9263 117.319 10.7115 117.576 10.6677C118.008 10.5974 118.445 10.563 118.882 10.5647C119.604 10.5647 120.157 10.6984 120.518 10.9591C120.88 11.22 121.033 11.6757 121.033 12.3529V12.4361C120.906 12.423 120.763 12.4121 120.608 12.4011C120.319 12.3813 119.951 12.3704 119.502 12.3704C118.906 12.3696 118.312 12.4431 117.733 12.5895C117.197 12.7194 116.684 12.9417 116.219 13.2469C115.784 13.536 115.42 13.9252 115.156 14.3842C114.888 14.8682 114.752 15.418 114.763 15.9751C114.749 16.5195 114.865 17.0591 115.101 17.5463C115.327 17.99 115.658 18.367 116.064 18.642C116.517 18.9414 117.023 19.1476 117.553 19.249C118.175 19.3756 118.808 19.4365 119.442 19.4309C119.948 19.4309 123.584 19.3782 123.584 17.5945V12.4273C123.578 11.06 123.185 10.041 122.409 9.40769ZM121.029 17.2154C120.829 17.2549 120.61 17.2855 120.372 17.3074C119.801 17.3681 119.227 17.3718 118.656 17.3184C118.429 17.2985 118.208 17.2361 118.003 17.1343C117.814 17.037 117.652 16.8913 117.533 16.7114C117.395 16.4789 117.33 16.2078 117.348 15.9357C117.333 15.7092 117.376 15.4825 117.475 15.2793C117.572 15.0761 117.722 14.904 117.907 14.7809C118.307 14.5157 118.911 14.3798 119.706 14.3798C119.919 14.3798 120.181 14.393 120.491 14.4192C120.693 14.4302 120.872 14.4478 121.029 14.4631V17.2154Z" fill="white"/>
<path fill-rule="evenodd" clip-rule="evenodd" d="M110.439 14.8656C110.439 16.1766 109.389 17.0495 108.105 17.0495C106.821 17.0495 105.77 16.1766 105.77 14.8656V12.9946C105.77 11.6835 106.821 10.8106 108.105 10.8106C109.389 10.8106 110.439 11.6835 110.439 12.9946V14.8656ZM108.105 8.43146C107.256 8.43146 106.455 8.62506 105.756 8.97608V5.772C105.756 5.36528 105.433 5.03552 105.034 5.03552H103.167V14.6855C103.167 17.4575 105.39 19.4286 108.105 19.4286C110.82 19.4286 113.041 17.4575 113.041 14.6855V13.1862C113.041 10.4144 110.82 8.43146 108.105 8.43146Z" fill="white"/>
</svg>
