<svg width="55" height="55" viewBox="0 0 55 55" fill="none" xmlns="http://www.w3.org/2000/svg">
<path d="M27.1723 1.05611C25.3999 1.84442 4.43154 12.0095 4.33826 12.134C4.24497 12.2585 4.21388 12.9327 4.21388 14.6027C4.21388 17.5485 4.06877 17.3514 6.21432 17.3514H7.73797V18.845C7.73797 20.1935 7.7587 20.3594 7.95564 20.6084C8.14221 20.8365 8.24586 20.878 8.73301 20.878H9.29272V41.4157H8.77447C8.34951 41.4157 8.19403 41.4675 7.9971 41.675C7.74834 41.9136 7.73797 41.9654 7.73797 43.4383V44.9423H6.24541C4.89797 44.9423 4.73213 44.9631 4.48337 45.1602L4.21388 45.3676V48.7802H2.82497C0.907449 48.7802 1.00073 48.6453 1.00073 51.4459C1.00073 53.5515 1.00073 53.5619 1.25986 53.8109L1.50862 54.0702H53.5616L53.8103 53.8109C54.0694 53.5619 54.0694 53.5515 54.0694 51.4459C54.0694 48.6453 54.1627 48.7802 52.2452 48.7802H50.8563V45.3676L50.5868 45.1602C50.3381 44.9631 50.1722 44.9423 48.8248 44.9423H47.3322V43.4383C47.3322 41.9654 47.3218 41.9136 47.0731 41.675C46.8761 41.4675 46.7207 41.4157 46.2957 41.4157H45.7775V20.878H46.3372C46.8243 20.878 46.928 20.8365 47.1145 20.6084C47.3115 20.3594 47.3322 20.1935 47.3322 18.845V17.3514H48.8662C50.991 17.3514 50.8563 17.5485 50.8563 14.5923C50.8563 12.9327 50.8252 12.2585 50.7319 12.134C50.5764 11.9265 28.043 1.07686 27.6387 1.01462C27.4936 0.983503 27.2863 1.00425 27.1723 1.05611ZM38.522 7.83975L49.3534 13.0468L49.4156 15.7955H5.65461L5.7168 13.0468L16.5482 7.83975C22.5081 4.97693 27.4522 2.63274 27.5351 2.63274C27.618 2.63274 32.5621 4.97693 38.522 7.83975ZM15.8745 19.374L12.5888 19.4051L9.29272 19.4259V17.3514H15.9367L15.8745 19.374ZM37.6928 18.9073C37.6928 20.7847 37.7446 20.878 38.6774 20.878H39.2475V41.4157H38.7085C38.3043 41.4157 38.1177 41.4675 37.9312 41.6439C37.7031 41.8617 37.6928 41.9343 37.6928 43.4072V44.9423H17.3774V43.4176C17.3774 41.9965 17.367 41.8824 17.1494 41.6542C16.9732 41.4675 16.8177 41.4157 16.372 41.4157H15.8227V20.878H16.3927C17.3256 20.878 17.3774 20.7847 17.3774 18.9073V17.3514H37.6928V18.9073ZM45.7775 19.4259L42.4918 19.4051L39.1957 19.374L39.1335 17.3514H45.7775V19.4259ZM14.2679 41.4157H10.8475V20.9818H14.2679V41.4157ZM44.2227 41.4157H40.8023V20.9818H44.2227V41.4157ZM15.9263 44.9423H9.29272V42.9716H15.9263V44.9423ZM45.7775 44.9423H39.1439V42.9716H45.7775V44.9423ZM49.3534 48.7283H5.7168L5.65461 46.4982H49.4156L49.3534 48.7283ZM52.5147 52.5143H2.55548V50.2842H52.5147V52.5143Z" fill="#FC9831"/>
<path d="M26.4364 6.97883C25.3273 7.34187 24.4671 8.2754 24.1561 9.48899C23.9488 10.2877 24.0317 11.0034 24.4152 11.8124C25.6694 14.4159 29.3386 14.4263 30.6342 11.8436C31.0385 11.0345 31.1214 10.3084 30.9141 9.48899C30.6031 8.25465 29.7428 7.3315 28.5923 6.97883C27.7735 6.71952 27.2552 6.71952 26.4364 6.97883ZM28.4472 8.54508C29.2246 8.92887 29.6392 9.83128 29.463 10.7648C29.3697 11.2523 28.6752 12.0095 28.1881 12.1755C27.3485 12.4452 26.3846 12.1132 25.8663 11.356C25.4932 10.8063 25.5139 9.76904 25.8974 9.18818C26.426 8.37912 27.5351 8.10944 28.4472 8.54508Z" fill="#FC9831"/>
<path d="M26.9754 23.077C26.8717 23.2222 26.8095 23.5334 26.8095 23.8653C26.8095 24.2906 26.7681 24.4254 26.6333 24.4669C26.5297 24.4981 26.1565 24.664 25.7938 24.8403C25.0475 25.2034 24.5189 25.7531 24.125 26.5829C23.897 27.0704 23.8555 27.2883 23.8555 28.1388C23.8555 28.9686 23.897 29.1968 24.1043 29.591C24.6018 30.5452 25.8456 31.4165 27.4314 31.9248C29.2142 32.4953 29.9501 33.3043 29.7739 34.5076C29.5563 35.939 27.9393 36.831 26.6541 36.2398C25.8456 35.8664 25.3999 35.2648 25.2963 34.3935C25.1822 33.5325 24.5707 33.1695 24.0006 33.6259C23.783 33.8022 23.7519 33.906 23.7726 34.3935C23.8141 35.3374 24.1665 36.0842 24.8817 36.8103C25.3688 37.2978 25.6694 37.5052 26.1669 37.6816L26.8095 37.9201V38.5217C26.8095 39.0404 26.8406 39.1441 27.079 39.3308C27.4314 39.6005 27.6387 39.6005 27.9911 39.3308C28.2295 39.1441 28.2606 39.0404 28.2606 38.5217V37.9201L28.8825 37.6919C30.0952 37.2459 31.0799 36.0219 31.2561 34.7254C31.422 33.5014 31.0799 32.5057 30.1989 31.6966C29.6392 31.178 29.0484 30.8668 27.7942 30.4311C26.6852 30.037 26.0944 29.7051 25.7316 29.2798C24.55 27.8691 25.9907 25.6183 27.8875 25.8983C28.4887 25.9917 29.2764 26.5311 29.5252 27.0082C29.6288 27.226 29.7636 27.6306 29.805 27.921C29.9087 28.5745 30.1471 28.8649 30.6031 28.8649C31.1421 28.8649 31.4116 28.45 31.3287 27.7343C31.1628 26.3755 30.1471 25.0685 28.8825 24.6018L28.2606 24.3736V23.8238C28.2606 23.3986 28.2088 23.2119 28.0533 23.0563C27.7631 22.7658 27.1827 22.7762 26.9754 23.077Z" fill="#FC9831"/>
<path d="M27.1723 1.05611C25.3999 1.84442 4.43154 12.0095 4.33826 12.134C4.24497 12.2585 4.21388 12.9327 4.21388 14.6027C4.21388 17.5485 4.06877 17.3514 6.21432 17.3514H7.73797V18.845C7.73797 20.1935 7.7587 20.3594 7.95564 20.6084C8.14221 20.8365 8.24586 20.878 8.73301 20.878H9.29272V41.4157H8.77447C8.34951 41.4157 8.19403 41.4675 7.9971 41.675C7.74834 41.9136 7.73797 41.9654 7.73797 43.4383V44.9423H6.24541C4.89797 44.9423 4.73213 44.9631 4.48337 45.1602L4.21388 45.3676V48.7802H2.82497C0.907449 48.7802 1.00073 48.6453 1.00073 51.4459C1.00073 53.5515 1.00073 53.5619 1.25986 53.8109L1.50862 54.0702H53.5616L53.8103 53.8109C54.0694 53.5619 54.0694 53.5515 54.0694 51.4459C54.0694 48.6453 54.1627 48.7802 52.2452 48.7802H50.8563V45.3676L50.5868 45.1602C50.3381 44.9631 50.1722 44.9423 48.8248 44.9423H47.3322V43.4383C47.3322 41.9654 47.3218 41.9136 47.0731 41.675C46.8761 41.4675 46.7207 41.4157 46.2957 41.4157H45.7775V20.878H46.3372C46.8243 20.878 46.928 20.8365 47.1145 20.6084C47.3115 20.3594 47.3322 20.1935 47.3322 18.845V17.3514H48.8662C50.991 17.3514 50.8563 17.5485 50.8563 14.5923C50.8563 12.9327 50.8252 12.2585 50.7319 12.134C50.5764 11.9265 28.043 1.07686 27.6387 1.01462C27.4936 0.983503 27.2863 1.00425 27.1723 1.05611ZM38.522 7.83975L49.3534 13.0468L49.4156 15.7955H5.65461L5.7168 13.0468L16.5482 7.83975C22.5081 4.97693 27.4522 2.63274 27.5351 2.63274C27.618 2.63274 32.5621 4.97693 38.522 7.83975ZM15.8745 19.374L12.5888 19.4051L9.29272 19.4259V17.3514H15.9367L15.8745 19.374ZM37.6928 18.9073C37.6928 20.7847 37.7446 20.878 38.6774 20.878H39.2475V41.4157H38.7085C38.3043 41.4157 38.1177 41.4675 37.9312 41.6439C37.7031 41.8617 37.6928 41.9343 37.6928 43.4072V44.9423H17.3774V43.4176C17.3774 41.9965 17.367 41.8824 17.1494 41.6542C16.9732 41.4675 16.8177 41.4157 16.372 41.4157H15.8227V20.878H16.3927C17.3256 20.878 17.3774 20.7847 17.3774 18.9073V17.3514H37.6928V18.9073ZM45.7775 19.4259L42.4918 19.4051L39.1957 19.374L39.1335 17.3514H45.7775V19.4259ZM14.2679 41.4157H10.8475V20.9818H14.2679V41.4157ZM44.2227 41.4157H40.8023V20.9818H44.2227V41.4157ZM15.9263 44.9423H9.29272V42.9716H15.9263V44.9423ZM45.7775 44.9423H39.1439V42.9716H45.7775V44.9423ZM49.3534 48.7283H5.7168L5.65461 46.4982H49.4156L49.3534 48.7283ZM52.5147 52.5143H2.55548V50.2842H52.5147V52.5143Z" stroke="#FC9831"/>
<path d="M26.4364 6.97883C25.3273 7.34187 24.4671 8.2754 24.1561 9.48899C23.9488 10.2877 24.0317 11.0034 24.4152 11.8124C25.6694 14.4159 29.3386 14.4263 30.6342 11.8436C31.0385 11.0345 31.1214 10.3084 30.9141 9.48899C30.6031 8.25465 29.7428 7.3315 28.5923 6.97883C27.7735 6.71952 27.2552 6.71952 26.4364 6.97883ZM28.4472 8.54508C29.2246 8.92887 29.6392 9.83128 29.463 10.7648C29.3697 11.2523 28.6752 12.0095 28.1881 12.1755C27.3485 12.4452 26.3846 12.1132 25.8663 11.356C25.4932 10.8063 25.5139 9.76904 25.8974 9.18818C26.426 8.37912 27.5351 8.10944 28.4472 8.54508Z" stroke="#FC9831"/>
<path d="M26.9754 23.077C26.8717 23.2222 26.8095 23.5334 26.8095 23.8653C26.8095 24.2906 26.7681 24.4254 26.6333 24.4669C26.5297 24.4981 26.1565 24.664 25.7938 24.8403C25.0475 25.2034 24.5189 25.7531 24.125 26.5829C23.897 27.0704 23.8555 27.2883 23.8555 28.1388C23.8555 28.9686 23.897 29.1968 24.1043 29.591C24.6018 30.5452 25.8456 31.4165 27.4314 31.9248C29.2142 32.4953 29.9501 33.3043 29.7739 34.5076C29.5563 35.939 27.9393 36.831 26.6541 36.2398C25.8456 35.8664 25.3999 35.2648 25.2963 34.3935C25.1822 33.5325 24.5707 33.1695 24.0006 33.6259C23.783 33.8022 23.7519 33.906 23.7726 34.3935C23.8141 35.3374 24.1665 36.0842 24.8817 36.8103C25.3688 37.2978 25.6694 37.5052 26.1669 37.6816L26.8095 37.9201V38.5217C26.8095 39.0404 26.8406 39.1441 27.079 39.3308C27.4314 39.6005 27.6387 39.6005 27.9911 39.3308C28.2295 39.1441 28.2606 39.0404 28.2606 38.5217V37.9201L28.8825 37.6919C30.0952 37.2459 31.0799 36.0219 31.2561 34.7254C31.422 33.5014 31.0799 32.5057 30.1989 31.6966C29.6392 31.178 29.0484 30.8668 27.7942 30.4311C26.6852 30.037 26.0944 29.7051 25.7316 29.2798C24.55 27.8691 25.9907 25.6183 27.8875 25.8983C28.4887 25.9917 29.2764 26.5311 29.5252 27.0082C29.6288 27.226 29.7636 27.6306 29.805 27.921C29.9087 28.5745 30.1471 28.8649 30.6031 28.8649C31.1421 28.8649 31.4116 28.45 31.3287 27.7343C31.1628 26.3755 30.1471 25.0685 28.8825 24.6018L28.2606 24.3736V23.8238C28.2606 23.3986 28.2088 23.2119 28.0533 23.0563C27.7631 22.7658 27.1827 22.7762 26.9754 23.077Z" stroke="#FC9831"/>
</svg>
