<?xml version="1.0" encoding="utf-8"?>
<!-- Generator: Adobe Illustrator 26.4.1, SVG Export Plug-In . SVG Version: 6.00 Build 0)  -->
<svg version="1.1" id="Layer_1" xmlns="http://www.w3.org/2000/svg" xmlns:xlink="http://www.w3.org/1999/xlink" x="0px" y="0px"
	 viewBox="0 0 191 56" style="enable-background:new 0 0 191 56;" xml:space="preserve">
<style type="text/css">
	.st0{fill:#FFFFFF;}
	.st1{fill:url(#SVGID_1_);}
	.st2{fill:url(#SVGID_00000037683415393360961950000012852990680191806382_);}
	.st3{fill:url(#SVGID_00000098180234338657811150000011012767204581512379_);}
	.st4{fill:url(#SVGID_00000000211048019176373230000005789008766632057246_);}
	.st5{fill:#FFFFFF;stroke:#FFFFFF;stroke-width:0.16;stroke-miterlimit:10;}
</style>
<path class="st0" d="M96.4,30c-3.3,0-6,2.5-6,5.9c0,3.4,2.7,5.9,6,5.9c3.3,0,6-2.5,6-5.9C102.4,32.5,99.7,30,96.4,30z M96.4,39.5
	c-1.8,0-3.4-1.5-3.4-3.6c0-2.1,1.6-3.6,3.4-3.6c1.8,0,3.4,1.4,3.4,3.6C99.8,38,98.2,39.5,96.4,39.5z M83.2,30c-3.3,0-6,2.5-6,5.9
	c0,3.4,2.7,5.9,6,5.9c3.3,0,6-2.5,6-5.9C89.3,32.5,86.6,30,83.2,30z M83.2,39.5c-1.8,0-3.4-1.5-3.4-3.6c0-2.1,1.6-3.6,3.4-3.6
	c1.8,0,3.4,1.4,3.4,3.6C86.6,38,85,39.5,83.2,39.5z M67.5,31.8v2.5h6.1c-0.2,1.4-0.7,2.4-1.4,3.1c-0.9,0.9-2.3,1.8-4.7,1.8
	c-3.8,0-6.7-3-6.7-6.6s2.9-6.6,6.7-6.6c2,0,3.5,0.8,4.6,1.8l1.8-1.8c-1.5-1.4-3.6-2.5-6.4-2.5c-5.2,0-9.5,4.1-9.5,9.1
	s4.3,9.1,9.5,9.1c2.8,0,4.9-0.9,6.5-2.6c1.7-1.6,2.2-4,2.2-5.8c0-0.6,0-1.1-0.1-1.6H67.5z M131.6,33.8c-0.5-1.3-2-3.7-5.2-3.7
	c-3.1,0-5.7,2.4-5.7,5.9c0,3.3,2.6,5.9,6,5.9c2.8,0,4.4-1.6,5-2.6l-2.1-1.3c-0.7,1-1.6,1.6-3,1.6c-1.3,0-2.3-0.6-2.9-1.8l8-3.3
	L131.6,33.8z M123.4,35.7c-0.1-2.3,1.8-3.4,3.1-3.4c1.1,0,1.9,0.5,2.2,1.2L123.4,35.7z M116.9,41.4h2.6V24.2h-2.6V41.4z M112.6,31.4
	L112.6,31.4c-0.7-0.7-1.8-1.3-3.3-1.3c-3,0-5.8,2.6-5.8,5.9c0,3.3,2.8,5.9,5.8,5.9c1.4,0,2.6-0.6,3.2-1.3h0.1v0.8
	c0,2.2-1.2,3.5-3.2,3.5c-1.6,0-2.6-1.1-3-2.1l-2.3,0.9c0.7,1.6,2.4,3.5,5.3,3.5c3.1,0,5.7-1.8,5.7-6.1V30.4h-2.5V31.4z M109.5,39.5
	c-1.8,0-3.3-1.5-3.3-3.5c0-2.1,1.5-3.6,3.3-3.6c1.8,0,3.2,1.5,3.2,3.6C112.8,38,111.3,39.5,109.5,39.5z M144,24.2h-6.3v17.3h2.6
	v-6.5h3.7c2.9,0,5.8-2.1,5.8-5.4C149.8,26.2,147,24.2,144,24.2z M144.1,32.5h-3.8v-5.9h3.8c2,0,3.1,1.6,3.1,3
	C147.2,30.9,146.1,32.5,144.1,32.5z M160.4,30c-1.9,0-3.9,0.8-4.7,2.6l2.3,1c0.5-1,1.4-1.3,2.4-1.3c1.4,0,2.8,0.8,2.8,2.2v0.2
	c-0.5-0.3-1.5-0.7-2.8-0.7c-2.5,0-5.1,1.4-5.1,3.9c0,2.3,2.1,3.8,4.4,3.8c1.8,0,2.8-0.8,3.4-1.7h0.1v1.3h2.5v-6.6
	C165.8,31.7,163.4,30,160.4,30z M160.1,39.5c-0.9,0-2.1-0.4-2.1-1.5c0-1.3,1.5-1.8,2.8-1.8c1.2,0,1.7,0.3,2.4,0.6
	C163,38.3,161.6,39.5,160.1,39.5z M175.1,30.4l-3,7.5H172l-3.1-7.5H166l4.7,10.5l-2.7,5.8h2.8l7.3-16.3H175.1z M151.3,41.4h2.6V24.2
	h-2.6V41.4z"/>
<linearGradient id="SVGID_1_" gradientUnits="userSpaceOnUse" x1="30.6674" y1="14.6065" x2="7.4917" y2="38.3437" gradientTransform="matrix(1 0 0 -1 0 58)">
	<stop  offset="0" style="stop-color:#00A0FF"/>
	<stop  offset="6.599999e-03" style="stop-color:#00A1FF"/>
	<stop  offset="0.2601" style="stop-color:#00BEFF"/>
	<stop  offset="0.5122" style="stop-color:#00D2FF"/>
	<stop  offset="0.7604" style="stop-color:#00DFFF"/>
	<stop  offset="1" style="stop-color:#00E3FF"/>
</linearGradient>
<path class="st1" d="M14.8,10.4c-0.4,0.4-0.7,1.1-0.7,1.9v30.5c0,0.9,0.2,1.5,0.7,1.9l0.1,0.1l17.5-17.1v-0.4L14.9,10.3L14.8,10.4z"
	/>
<linearGradient id="SVGID_00000058577773583878360160000014693693595879713185_" gradientUnits="userSpaceOnUse" x1="23.3978" y1="22.0945" x2="-8.0302" y2="54.284" gradientTransform="matrix(1 0 0 -1 0 58)">
	<stop  offset="0" style="stop-color:#FF3A44"/>
	<stop  offset="1" style="stop-color:#C31162"/>
</linearGradient>
<path style="fill:url(#SVGID_00000058577773583878360160000014693693595879713185_);" d="M38.4,33.5l-6-5.8L14.8,44.8
	c0.7,0.7,1.7,0.8,2.9,0.1L38.4,33.5z"/>
<linearGradient id="SVGID_00000085228575455079290800000006874799372641786269_" gradientUnits="userSpaceOnUse" x1="47.8696" y1="30.3733" x2="13.6354" y2="30.3733" gradientTransform="matrix(1 0 0 -1 0 58)">
	<stop  offset="0" style="stop-color:#FFE000"/>
	<stop  offset="0.4087" style="stop-color:#FFBD00"/>
	<stop  offset="0.7754" style="stop-color:#FFA500"/>
	<stop  offset="1" style="stop-color:#FF9C00"/>
</linearGradient>
<path style="fill:url(#SVGID_00000085228575455079290800000006874799372641786269_);" d="M38.2,33.5l-5.8-5.7v-0.4l5.8-5.7l0.1,0.1
	l6.9,3.8c2,1.1,2,2.9,0,4l-6.9,3.8L38.2,33.5z"/>
<linearGradient id="SVGID_00000051367845352909357740000004006061438894605244_" gradientUnits="userSpaceOnUse" x1="-0.8068" y1="13.8578" x2="13.2272" y2="28.2317" gradientTransform="matrix(1 0 0 -1 0 58)">
	<stop  offset="0" style="stop-color:#32A071"/>
	<stop  offset="6.850000e-02" style="stop-color:#2DA771"/>
	<stop  offset="0.4762" style="stop-color:#15CF74"/>
	<stop  offset="0.8009" style="stop-color:#06E775"/>
	<stop  offset="1" style="stop-color:#00F076"/>
</linearGradient>
<path style="fill:url(#SVGID_00000051367845352909357740000004006061438894605244_);" d="M38.4,21.8L17.7,10.3
	c-1.2-0.7-2.3-0.6-2.9,0.1l17.6,17.2L38.4,21.8z"/>
<path class="st5" d="M106.9,18V9.7h1.3l4.1,6.4h0l0-1.6V9.7h1.1V18h-1.1l-4.3-6.8h0l0,1.6V18H106.9z"/>
<path class="st5" d="M90.7,18h-1.1v-7.3h-2.4v-1h5.8v1h-2.4V18z"/>
<path class="st5" d="M84.8,18V9.7h1.1V18H84.8z"/>
<path class="st5" d="M78.2,18h-1.1v-7.3h-2.4v-1h5.8v1h-2.4V18z"/>
<path class="st5" d="M73.6,10.7h-3.9v2.6h3.5v1h-3.5v2.6h3.9v1h-5V9.7h5V10.7z"/>
<path class="st5" d="M104.1,16.9c-0.8,0.8-1.9,1.3-3.1,1.3c-1.2,0-2.3-0.4-3.1-1.3c-0.8-0.8-1.3-1.9-1.3-3.1s0.4-2.2,1.3-3.1
	c0.8-0.8,1.9-1.3,3.1-1.3c1.2,0,2.3,0.4,3.1,1.3c0.8,0.8,1.3,1.9,1.3,3.1C105.4,15,105,16.1,104.1,16.9z M98.7,16.2
	c0.6,0.6,1.4,0.9,2.3,0.9c0.9,0,1.7-0.3,2.3-0.9c0.6-0.6,0.9-1.4,0.9-2.4s-0.3-1.8-0.9-2.4c-0.6-0.6-1.4-0.9-2.3-0.9
	c-0.9,0-1.7,0.3-2.3,0.9c-0.6,0.6-0.9,1.4-0.9,2.4S98.1,15.6,98.7,16.2z"/>
<path class="st5" d="M67.1,14.1c0,1.2-0.4,2.1-1.1,2.8c-0.8,0.8-1.8,1.2-3.1,1.2c-1.2,0-2.3-0.4-3.1-1.2c-0.9-0.8-1.3-1.9-1.3-3.1
	s0.4-2.3,1.3-3.1c0.9-0.8,1.9-1.2,3.1-1.2c0.6,0,1.2,0.1,1.7,0.4c0.6,0.2,1,0.5,1.3,0.9l-0.7,0.7c-0.6-0.7-1.3-1-2.3-1
	c-0.9,0-1.7,0.3-2.3,0.9c-0.6,0.6-1,1.4-1,2.4s0.3,1.8,1,2.4c0.7,0.6,1.4,0.9,2.3,0.9c0.9,0,1.7-0.3,2.4-0.9c0.4-0.4,0.6-1,0.7-1.7
	h-3.1v-1H67C67.1,13.7,67.1,13.9,67.1,14.1z"/>
</svg>
