<svg width="55" height="55" viewBox="0 0 55 55" fill="none" xmlns="http://www.w3.org/2000/svg">
<path d="M53.9952 23.0362L48.7116 12.9179C48.2915 12.1219 47.5773 11.5215 46.721 11.2444C45.8647 10.9673 44.9341 11.0354 44.1273 11.4343L39.1257 13.935H35.6051L28.5159 10.7272C27.7683 10.3894 26.9246 10.3297 26.1369 10.5591L15.68 13.6076L10.8729 11.204C10.0661 10.8054 9.13551 10.7374 8.27928 11.0144C7.42305 11.2915 6.70874 11.8918 6.28837 12.6875L1.00477 22.806C0.793521 23.2107 0.66498 23.6534 0.626646 24.1082C0.588311 24.5631 0.64095 25.021 0.781491 25.4554C0.922033 25.8897 1.14766 26.2916 1.44521 26.6378C1.74276 26.984 2.10628 27.2674 2.51455 27.4716L7.6708 30.0498L19.2784 39.1265C19.6574 39.4236 20.0949 39.6372 20.5623 39.7534L33.014 42.8663C33.2841 42.9338 33.5615 42.9679 33.84 42.9679C34.7537 42.968 35.6304 42.6066 36.2786 41.9625L44.1842 34.0566C44.1925 34.0482 44.2001 34.039 44.2083 34.0305C44.2191 34.0192 44.2296 34.0076 44.2402 33.996C44.2517 33.9833 44.264 33.9712 44.2752 33.9581L47.4864 30.2014L52.4854 27.7019C52.8937 27.4977 53.2572 27.2142 53.5548 26.868C53.8523 26.5219 54.078 26.1199 54.2185 25.6856C54.3591 25.2512 54.4117 24.7933 54.3734 24.3384C54.335 23.8835 54.2065 23.4408 53.9952 23.0362V23.0362ZM42.6946 30.5168L34.5265 24.5763C34.2293 24.36 33.8705 24.2448 33.503 24.2475C33.1354 24.2502 32.7784 24.3707 32.4844 24.5913L29.7345 26.6538C28.8402 27.3191 27.7553 27.6784 26.6406 27.6784C25.526 27.6784 24.4411 27.3191 23.5468 26.6538L22.3824 25.7804L30.79 17.3725H35.2253C35.228 17.3725 35.2306 17.3729 35.2333 17.3729L35.2392 17.3725H38.4897L44.3451 28.586L42.6946 30.5168ZM9.33563 14.2786L13.1355 16.1785L7.85186 26.297L4.05202 24.3971L9.33563 14.2786ZM33.8477 39.5316L21.396 36.4187L10.7796 28.117L16.6311 16.9109L27.0991 13.8592L28.7533 14.6077C28.6139 14.7092 28.4822 14.8209 28.3594 14.9419L19.9515 23.3497C19.6033 23.698 19.334 24.117 19.1618 24.5784C18.9896 25.0398 18.9185 25.5328 18.9534 26.0241C18.9884 26.5153 19.1284 26.9933 19.3641 27.4257C19.5999 27.8581 19.9257 28.2348 20.3197 28.5303L21.4844 29.4038C22.9748 30.5127 24.7829 31.1115 26.6406 31.1115C28.4983 31.1115 30.3065 30.5127 31.7969 29.4038L33.5314 28.1029L40.3311 33.0482L33.8477 39.5316ZM50.948 24.6274L47.1481 26.5273L41.8645 16.4087L45.6644 14.5089L50.9501 24.6262L50.948 24.6274ZM25.7298 46.1488C25.6754 46.3679 25.5782 46.5741 25.4439 46.7556C25.3096 46.9371 25.1408 47.0903 24.9472 47.2065C24.7536 47.3226 24.539 47.3995 24.3156 47.4325C24.0923 47.4656 23.8646 47.4543 23.6456 47.3992L17.1703 45.7806C16.6449 45.6484 16.158 45.3947 15.7486 45.0399L10.9037 40.8284C10.5597 40.5294 10.3485 40.106 10.3167 39.6512C10.2849 39.1965 10.435 38.7477 10.734 38.4037C11.033 38.0596 11.4565 37.8485 11.9112 37.8166C12.366 37.7848 12.8147 37.9349 13.1588 38.234L18.0041 42.4457L24.4794 44.0645C24.6984 44.1193 24.9044 44.2166 25.0858 44.3509C25.2671 44.4853 25.4202 44.6541 25.5364 44.8476C25.6525 45.0412 25.7293 45.2557 25.7625 45.479C25.7957 45.7022 25.7846 45.9298 25.7298 46.1488Z" fill="#FC9831"/>
</svg>
