<svg width="30" height="30" viewBox="0 0 30 30" fill="none" xmlns="http://www.w3.org/2000/svg">
<path d="M7.37321 7.70993L6.87321 8.57595L7.37321 7.70993ZM6.00719 8.07595L5.14116 7.57595H5.14116L6.00719 8.07595ZM4.50719 10.674L5.37322 11.174L4.50719 10.674ZM4.87322 12.0401L5.37322 11.174H5.37321L4.87322 12.0401ZM4.87321 17.9599L5.37321 18.826H5.37321L4.87321 17.9599ZM4.50719 19.326L5.37321 18.826L4.50719 19.326ZM6.00719 21.924L5.14116 22.424L6.00719 21.924ZM7.37321 22.2901L7.87321 23.1561H7.87321L7.37321 22.2901ZM22.6267 22.2901L22.1267 23.1561L22.6267 22.2901ZM23.9928 21.924L23.1267 21.424L23.9928 21.924ZM25.4928 19.326L26.3588 19.826L25.4928 19.326ZM25.1267 17.9599L24.6267 18.826V18.826L25.1267 17.9599ZM25.1267 12.0401L24.6267 11.174L25.1267 12.0401ZM25.4928 10.674L26.3588 10.174L26.3588 10.174L25.4928 10.674ZM23.9928 8.07596L23.1267 8.57596L23.9928 8.07596ZM22.6267 7.70993L23.1267 8.57596V8.57596L22.6267 7.70993ZM18.1546 8.19371L18.5757 7.28669L18.1546 8.19371ZM22.4703 14.3284L23.4664 14.24L22.4703 14.3284ZM19.3155 21.1348L19.8916 21.9522L19.3155 21.1348ZM20.4865 21.0544L20.9865 20.1884L20.4865 21.0544ZM22.9866 16.7243L22.4866 17.5903L22.9866 16.7243ZM11.8454 21.8063L12.2665 20.8993L11.8454 21.8063ZM9.51344 21.0544L9.01344 20.1884L9.51344 21.0544ZM10.6844 21.1348L11.2605 20.3174L10.6844 21.1348ZM7.52964 14.3284L6.53355 14.24L7.52964 14.3284ZM10.6844 8.86523L11.2605 9.68263L10.6844 8.86523ZM11.8454 8.19371L11.4243 7.28669L11.8454 8.19371ZM13.5 4.75V4.75V2.75C12.3954 2.75 11.5 3.64543 11.5 4.75H13.5ZM13.5 7.21959V4.75H11.5V7.21959H13.5ZM11.2605 9.68263C11.5765 9.45995 11.913 9.26485 12.2665 9.10073L11.4243 7.28669C10.9614 7.50161 10.5212 7.75686 10.1084 8.04783L11.2605 9.68263ZM6.87321 8.57595L9.01345 9.81162L10.0135 8.07957L7.87321 6.8439L6.87321 8.57595ZM6.87321 8.57595L7.87322 6.8439C6.91663 6.29162 5.69345 6.61937 5.14116 7.57595L6.87321 8.57595ZM5.37322 11.174L6.87321 8.57595L5.14116 7.57595L3.64116 10.174L5.37322 11.174ZM5.37321 11.174L5.37322 11.174L3.64116 10.174C3.08888 11.1306 3.41663 12.3538 4.37322 12.9061L5.37321 11.174ZM7.51336 12.4096L5.37322 11.174L4.37321 12.9061L6.51336 14.1417L7.51336 12.4096ZM8.49998 15C8.49998 14.8032 8.50869 14.6087 8.52572 14.4168L6.53355 14.24C6.51131 14.4906 6.49998 14.7441 6.49998 15H8.49998ZM8.52572 15.5832C8.50869 15.3913 8.49998 15.1968 8.49998 15H6.49998C6.49998 15.2559 6.51131 15.5094 6.53355 15.76L8.52572 15.5832ZM5.37321 18.826L7.51336 17.5903L6.51336 15.8583L4.37321 17.0939L5.37321 18.826ZM5.37321 18.826H5.37321L4.37321 17.0939C3.41663 17.6462 3.08888 18.8694 3.64116 19.826L5.37321 18.826ZM6.87321 21.424L5.37321 18.826L3.64116 19.826L5.14116 22.424L6.87321 21.424ZM6.87321 21.424H6.87321L5.14116 22.424C5.69345 23.3806 6.91663 23.7084 7.87321 23.1561L6.87321 21.424ZM9.01344 20.1884L6.87321 21.424L7.87321 23.1561L10.0134 21.9204L9.01344 20.1884ZM12.2665 20.8993C11.913 20.7351 11.5765 20.54 11.2605 20.3174L10.1083 21.9522C10.5212 22.2431 10.9614 22.4984 11.4243 22.7133L12.2665 20.8993ZM13.5 25.25V22.7804H11.5V25.25H13.5ZM13.5 25.25H11.5C11.5 26.3546 12.3954 27.25 13.5 27.25V25.25ZM16.5 25.25H13.5V27.25H16.5V25.25ZM16.5 25.25V27.25C17.6045 27.25 18.5 26.3546 18.5 25.25H16.5ZM16.5 22.7804V25.25H18.5V22.7804H16.5ZM18.7395 20.3174C18.4235 20.54 18.087 20.7351 17.7335 20.8993L18.5757 22.7133C19.0386 22.4984 19.4787 22.2431 19.8916 21.9522L18.7395 20.3174ZM23.1267 21.424L20.9865 20.1884L19.9865 21.9204L22.1267 23.1561L23.1267 21.424ZM23.1267 21.424L22.1267 23.1561C23.0833 23.7084 24.3065 23.3806 24.8588 22.424L23.1267 21.424ZM24.6267 18.826L23.1267 21.424L24.8588 22.424L26.3588 19.826L24.6267 18.826ZM24.6267 18.826V18.826L26.3588 19.826C26.9111 18.8694 26.5833 17.6462 25.6267 17.0939L24.6267 18.826ZM22.4866 17.5903L24.6267 18.826L25.6267 17.0939L23.4866 15.8583L22.4866 17.5903ZM21.5 15C21.5 15.1968 21.4913 15.3913 21.4742 15.5832L23.4664 15.76C23.4886 15.5094 23.5 15.2559 23.5 15H21.5ZM21.4742 14.4168C21.4913 14.6087 21.5 14.8032 21.5 15H23.5C23.5 14.7441 23.4886 14.4906 23.4664 14.24L21.4742 14.4168ZM24.6267 11.174L22.4866 12.4096L23.4866 14.1417L25.6267 12.9061L24.6267 11.174ZM24.6267 11.174V11.174L25.6267 12.9061C26.5833 12.3538 26.9111 11.1306 26.3588 10.174L24.6267 11.174ZM23.1267 8.57596L24.6267 11.174L26.3588 10.174L24.8588 7.57596L23.1267 8.57596ZM23.1267 8.57596L24.8588 7.57596C24.3065 6.61937 23.0833 6.29162 22.1267 6.8439L23.1267 8.57596ZM20.9865 9.81162L23.1267 8.57596L22.1267 6.8439L19.9865 8.07957L20.9865 9.81162ZM17.7335 9.10072C18.087 9.26485 18.4235 9.45995 18.7395 9.68263L19.8916 8.04783C19.4787 7.75686 19.0386 7.50161 18.5757 7.28669L17.7335 9.10072ZM16.5 4.75V7.21959H18.5V4.75H16.5ZM16.5 4.75H16.5H18.5C18.5 3.64543 17.6045 2.75 16.5 2.75V4.75ZM13.5 4.75H16.5V2.75H13.5V4.75ZM18.5757 7.28669C18.541 7.27063 18.5185 7.24863 18.5073 7.23237C18.4976 7.21823 18.5 7.2146 18.5 7.21959H16.5C16.5 8.08486 17.0459 8.78154 17.7335 9.10072L18.5757 7.28669ZM19.9865 8.07957C19.9908 8.0771 19.9889 8.08092 19.9719 8.07959C19.9525 8.07805 19.9225 8.06959 19.8916 8.04783L18.7395 9.68263C19.36 10.12 20.237 10.2443 20.9865 9.81162L19.9865 8.07957ZM23.4664 14.24C23.4631 14.2023 23.4708 14.172 23.4792 14.1544C23.4866 14.139 23.4909 14.1392 23.4866 14.1417L22.4866 12.4096C21.7382 12.8417 21.4072 13.6618 21.4742 14.4168L23.4664 14.24ZM19.8916 21.9522C19.9225 21.9304 19.9525 21.9219 19.972 21.9204C19.9889 21.9191 19.9908 21.9229 19.9865 21.9204L20.9865 20.1884C20.237 19.7557 19.36 19.88 18.7395 20.3174L19.8916 21.9522ZM23.4866 15.8583C23.4909 15.8608 23.4866 15.861 23.4792 15.8456C23.4708 15.828 23.4631 15.7977 23.4664 15.76L21.4742 15.5832C21.4072 16.3382 21.7382 17.1582 22.4866 17.5903L23.4866 15.8583ZM11.4243 22.7133C11.4589 22.7294 11.4815 22.7514 11.4926 22.7676C11.5023 22.7818 11.5 22.7854 11.5 22.7804H13.5C13.5 21.9151 12.954 21.2185 12.2665 20.8993L11.4243 22.7133ZM10.0134 21.9204C10.0092 21.9229 10.0111 21.9191 10.028 21.9204C10.0474 21.9219 10.0775 21.9304 10.1083 21.9522L11.2605 20.3174C10.64 19.88 9.76293 19.7557 9.01344 20.1884L10.0134 21.9204ZM18.5 22.7804C18.5 22.7854 18.4976 22.7818 18.5073 22.7676C18.5185 22.7514 18.541 22.7294 18.5757 22.7133L17.7335 20.8993C17.0459 21.2185 16.5 21.9151 16.5 22.7804H18.5ZM6.53355 15.76C6.5369 15.7977 6.52917 15.8279 6.52074 15.8456C6.5134 15.861 6.50909 15.8608 6.51336 15.8583L7.51336 17.5903C8.26179 17.1582 8.59272 16.3382 8.52572 15.5832L6.53355 15.76ZM6.51336 14.1417C6.50909 14.1392 6.5134 14.139 6.52074 14.1544C6.52917 14.172 6.5369 14.2023 6.53355 14.24L8.52572 14.4168C8.59272 13.6618 8.26179 12.8417 7.51336 12.4096L6.51336 14.1417ZM10.1084 8.04783C10.0775 8.06959 10.0475 8.07805 10.028 8.07959C10.0111 8.08092 10.0092 8.0771 10.0135 8.07957L9.01345 9.81162C9.76294 10.2443 10.64 10.1199 11.2605 9.68263L10.1084 8.04783ZM11.5 7.21959C11.5 7.2146 11.5023 7.21823 11.4926 7.23237C11.4815 7.24863 11.4589 7.27063 11.4243 7.28669L12.2665 9.10073C12.954 8.78154 13.5 8.08486 13.5 7.21959H11.5Z" fill="white"/>
<circle cx="15" cy="15" r="3.75" stroke="white" stroke-width="2" stroke-linecap="round" stroke-linejoin="round"/>
</svg>
