<svg width="55" height="55" viewBox="0 0 55 55" fill="none" xmlns="http://www.w3.org/2000/svg">
<path d="M14.4146 32.7479L13.75 33.4354V16.0417C13.75 15.4339 13.5086 14.851 13.0788 14.4212C12.649 13.9914 12.0661 13.75 11.4584 13.75C10.8506 13.75 10.2677 13.9914 9.8379 14.4212C9.40813 14.851 9.16669 15.4339 9.16669 16.0417V33.4354L8.5021 32.7479C8.07057 32.3164 7.48529 32.074 6.87502 32.074C6.26474 32.074 5.67946 32.3164 5.24793 32.7479C4.81641 33.1794 4.57397 33.7647 4.57397 34.375C4.57397 34.9853 4.81641 35.5706 5.24793 36.0021L9.83127 40.5854C10.0492 40.7941 10.3062 40.9576 10.5875 41.0667C10.8618 41.1879 11.1584 41.2505 11.4584 41.2505C11.7583 41.2505 12.0549 41.1879 12.3292 41.0667C12.6105 40.9576 12.8675 40.7941 13.0854 40.5854L17.6688 36.0021C17.8824 35.7884 18.0519 35.5347 18.1676 35.2556C18.2832 34.9764 18.3427 34.6772 18.3427 34.375C18.3427 34.0728 18.2832 33.7736 18.1676 33.4944C18.0519 33.2153 17.8824 32.9616 17.6688 32.7479C17.4551 32.5342 17.2014 32.3648 16.9223 32.2491C16.6431 32.1335 16.3439 32.074 16.0417 32.074C15.7395 32.074 15.4403 32.1335 15.1611 32.2491C14.8819 32.3648 14.6283 32.5342 14.4146 32.7479ZM25.2084 18.3333H48.125C48.7328 18.3333 49.3157 18.0919 49.7455 17.6621C50.1752 17.2323 50.4167 16.6495 50.4167 16.0417C50.4167 15.4339 50.1752 14.851 49.7455 14.4212C49.3157 13.9914 48.7328 13.75 48.125 13.75H25.2084C24.6006 13.75 24.0177 13.9914 23.5879 14.4212C23.1581 14.851 22.9167 15.4339 22.9167 16.0417C22.9167 16.6495 23.1581 17.2323 23.5879 17.6621C24.0177 18.0919 24.6006 18.3333 25.2084 18.3333ZM48.125 25.2083H25.2084C24.6006 25.2083 24.0177 25.4498 23.5879 25.8795C23.1581 26.3093 22.9167 26.8922 22.9167 27.5C22.9167 28.1078 23.1581 28.6907 23.5879 29.1205C24.0177 29.5502 24.6006 29.7917 25.2084 29.7917H48.125C48.7328 29.7917 49.3157 29.5502 49.7455 29.1205C50.1752 28.6907 50.4167 28.1078 50.4167 27.5C50.4167 26.8922 50.1752 26.3093 49.7455 25.8795C49.3157 25.4498 48.7328 25.2083 48.125 25.2083ZM48.125 36.6667H25.2084C24.6006 36.6667 24.0177 36.9081 23.5879 37.3379C23.1581 37.7677 22.9167 38.3505 22.9167 38.9583C22.9167 39.5661 23.1581 40.149 23.5879 40.5788C24.0177 41.0086 24.6006 41.25 25.2084 41.25H48.125C48.7328 41.25 49.3157 41.0086 49.7455 40.5788C50.1752 40.149 50.4167 39.5661 50.4167 38.9583C50.4167 38.3505 50.1752 37.7677 49.7455 37.3379C49.3157 36.9081 48.7328 36.6667 48.125 36.6667Z" fill="#FC9831"/>
</svg>
