<?xml version="1.0" encoding="utf-8"?>
<!-- Generator: Adobe Illustrator 26.4.1, SVG Export Plug-In . SVG Version: 6.00 Build 0)  -->
<svg version="1.1" id="Layer_1" xmlns="http://www.w3.org/2000/svg" xmlns:xlink="http://www.w3.org/1999/xlink" x="0px" y="0px"
	 viewBox="0 0 30 30" style="enable-background:new 0 0 30 30;" xml:space="preserve">
<style type="text/css">
	.st0{fill:#FC9831;}
	.st1{fill:#FFFFFF;}
</style>
<path class="st0" d="M6.6,7.9C6.5,7.7,6.4,7.7,6.2,7.6c-0.3-0.1-0.6-0.1-1,0C5.1,7.7,5,7.7,4.9,7.9l-2.5,2.5C2.1,10.6,2,10.9,2,11.3
	s0.1,0.7,0.4,0.9s0.6,0.4,0.9,0.4c0.3,0,0.7-0.1,0.9-0.4l0.4-0.4v9.5c0,0.3,0.1,0.6,0.4,0.9c0.2,0.2,0.6,0.4,0.9,0.4
	c0.3,0,0.6-0.1,0.9-0.4C6.9,21.9,7,21.6,7,21.3v-9.5l0.4,0.4c0.1,0.1,0.3,0.2,0.4,0.3c0.2,0.1,0.3,0.1,0.5,0.1c0.2,0,0.3,0,0.5-0.1
	c0.2-0.1,0.3-0.2,0.4-0.3c0.1-0.1,0.2-0.3,0.3-0.4c0.1-0.2,0.1-0.3,0.1-0.5s0-0.3-0.1-0.5c-0.1-0.2-0.2-0.3-0.3-0.4L6.6,7.9z"/>
<path class="st1" d="M14.8,10h12.5c0.3,0,0.6-0.1,0.9-0.4c0.2-0.2,0.4-0.6,0.4-0.9s-0.1-0.6-0.4-0.9c-0.2-0.2-0.6-0.4-0.9-0.4H14.8
	c-0.3,0-0.6,0.1-0.9,0.4c-0.2,0.2-0.4,0.6-0.4,0.9s0.1,0.6,0.4,0.9C14.1,9.9,14.4,10,14.8,10z M27.3,20H14.8c-0.3,0-0.6,0.1-0.9,0.4
	c-0.2,0.2-0.4,0.6-0.4,0.9s0.1,0.6,0.4,0.9c0.2,0.2,0.6,0.4,0.9,0.4h12.5c0.3,0,0.6-0.1,0.9-0.4c0.2-0.2,0.4-0.6,0.4-0.9
	s-0.1-0.6-0.4-0.9C27.9,20.1,27.6,20,27.3,20z M27.3,13.8H14.8c-0.3,0-0.6,0.1-0.9,0.4c-0.2,0.2-0.4,0.6-0.4,0.9s0.1,0.6,0.4,0.9
	c0.2,0.2,0.6,0.4,0.9,0.4h12.5c0.3,0,0.6-0.1,0.9-0.4c0.2-0.2,0.4-0.6,0.4-0.9s-0.1-0.6-0.4-0.9C27.9,13.9,27.6,13.8,27.3,13.8z"/>
</svg>
