<svg width="30" height="30" viewBox="0 0 30 30" fill="none" xmlns="http://www.w3.org/2000/svg">
<path d="M24.4409 3.74634C24.126 3.76099 23.8294 3.85254 23.5657 3.95508H23.562C23.2947 4.06128 22.024 4.59595 20.094 5.40528C18.1641 6.21826 15.6592 7.27295 13.1726 8.32031C8.20682 10.4114 3.32523 12.4695 3.32523 12.4695L3.38382 12.4475C3.38382 12.4475 3.04691 12.5574 2.69534 12.7991C2.5159 12.9163 2.31815 13.0774 2.14603 13.3301C1.97391 13.5828 1.83475 13.9709 1.88602 14.3701C1.97025 15.0476 2.4097 15.4541 2.72464 15.6775C3.04324 15.9045 3.3472 16.0107 3.3472 16.0107H3.35452L7.93216 17.5525C8.13724 18.2117 9.32742 22.1228 9.61307 23.0237C9.78153 23.562 9.94632 23.8989 10.1514 24.1553C10.2503 24.2871 10.3675 24.397 10.5066 24.4849C10.5616 24.5178 10.6201 24.5435 10.6787 24.5654C10.6971 24.5764 10.7154 24.5801 10.7373 24.5837L10.6897 24.5728C10.7044 24.5764 10.7154 24.5874 10.7263 24.5911C10.763 24.6021 10.7886 24.6057 10.8362 24.613C11.5613 24.8328 12.1436 24.3823 12.1436 24.3823L12.1765 24.3567L14.8792 21.8958L19.4092 25.3711L19.5117 25.415C20.4566 25.8289 21.4124 25.5981 21.9178 25.1917C22.4268 24.7815 22.6245 24.2578 22.6245 24.2578L22.6575 24.1736L26.1585 6.24024C26.2574 5.79712 26.283 5.3833 26.1731 4.98047C26.0633 4.57764 25.7813 4.20044 25.4407 3.99903C25.0965 3.79395 24.7559 3.73169 24.4409 3.74634ZM24.3457 5.66895C24.3421 5.72754 24.3531 5.72022 24.3274 5.83374V5.84473L20.8594 23.5913C20.8448 23.6169 20.8191 23.6719 20.7495 23.7268C20.6763 23.7854 20.6177 23.822 20.3138 23.7012L14.773 19.4531L11.4258 22.5037L12.1289 18.0139C12.1289 18.0139 20.8081 9.92432 21.1817 9.57642C21.5552 9.22852 21.4307 9.15527 21.4307 9.15527C21.4563 8.73047 20.8667 9.03076 20.8667 9.03076L9.45193 16.1023L9.44827 16.084L3.97708 14.2419V14.2383C3.97342 14.2383 3.9661 14.2346 3.96243 14.2346C3.9661 14.2346 3.99173 14.2236 3.99173 14.2236L4.02103 14.209L4.05032 14.198C4.05032 14.198 8.93558 12.1399 13.9014 10.0488C16.388 9.00147 18.8929 7.94678 20.8191 7.13379C22.7454 6.32446 24.17 5.7312 24.2505 5.69824C24.3274 5.66895 24.2908 5.66895 24.3457 5.66895Z" fill="white"/>
</svg>
